<?xml version="1.0" encoding="us-ascii" standalone="no"?><svg xmlns="http://www.w3.org/2000/svg" xmlns:xlink="http://www.w3.org/1999/xlink" contentStyleType="text/css" height="316px" preserveAspectRatio="none" style="width:723px;height:316px;background:#FFFFFF;" version="1.1" viewBox="0 0 723 316" width="723px" zoomAndPan="magnify"><defs/><g><!--class Department--><g id="elem_Department"><rect codeLine="1" fill="#F1F1F1" height="96.8906" id="Department" rx="2.5" ry="2.5" style="stroke:#181818;stroke-width:0.5;" width="136" x="38.5" y="7"/><ellipse cx="59.8" cy="23" fill="#ADD1B2" rx="11" ry="11" style="stroke:#181818;stroke-width:1.0;"/><path d="M58.5969,23.875 L60.05,23.875 L60.05,23.9844 C60.05,24.3906 60.0813,24.5469 60.1594,24.7031 C60.3156,24.9531 60.5969,25.1094 60.8938,25.1094 C61.1438,25.1094 61.4094,24.9688 61.5656,24.75 C61.6906,24.5938 61.7219,24.4375 61.7219,23.9844 L61.7219,22.0625 C61.7219,21.9063 61.7219,21.8594 61.7063,21.7031 C61.6438,21.2344 61.3313,20.9219 60.8781,20.9219 C60.6281,20.9219 60.3625,21.0625 60.1906,21.2813 C60.0813,21.4531 60.05,21.6094 60.05,22.0625 L60.05,22.1875 L58.5969,22.1875 L58.5969,19.7813 L62.5813,19.7813 L62.5813,20.6406 C62.5813,21.0469 62.6125,21.2188 62.6906,21.375 C62.8625,21.625 63.1438,21.7813 63.425,21.7813 C63.6906,21.7813 63.9563,21.6406 64.1281,21.4219 C64.2375,21.25 64.2688,21.1094 64.2688,20.6406 L64.2688,18.0938 L56.6438,18.0938 C56.2063,18.0938 56.0813,18.1094 55.925,18.2031 C55.675,18.3594 55.5188,18.6563 55.5188,18.9375 C55.5188,19.2188 55.6594,19.4688 55.8781,19.6406 C56.0344,19.75 56.2219,19.7813 56.6438,19.7813 L56.8938,19.7813 L56.8938,26.2969 L56.6438,26.2969 C56.2375,26.2969 56.0813,26.3125 55.925,26.4219 C55.675,26.5938 55.5188,26.8594 55.5188,27.1563 C55.5188,27.4219 55.6594,27.6719 55.8781,27.8281 C56.0188,27.9531 56.2531,28 56.6438,28 L64.6438,28 L64.6438,25.4219 C64.6438,24.9844 64.6125,24.8438 64.5344,24.6875 C64.3625,24.4375 64.0813,24.2813 63.8,24.2813 C63.5344,24.2813 63.2688,24.3906 63.0969,24.6406 C62.9875,24.7969 62.9563,24.9375 62.9563,25.4219 L62.9563,26.2969 L58.5969,26.2969 L58.5969,23.875 Z " fill="#000000"/><text fill="#000000" font-family="sans-serif" font-size="14" lengthAdjust="spacing" textLength="90" x="75.2" y="27.8467">Department</text><line style="stroke:#181818;stroke-width:0.5;" x1="39.5" x2="173.5" y1="39" y2="39"/><text fill="#000000" font-family="sans-serif" font-size="14" lengthAdjust="spacing" textLength="13" x="44.5" y="55.9951">id</text><text fill="#000000" font-family="sans-serif" font-size="14" lengthAdjust="spacing" textLength="40" x="44.5" y="72.292">name</text><text fill="#000000" font-family="sans-serif" font-size="14" lengthAdjust="spacing" textLength="124" x="44.5" y="88.5889">coordinator: User</text><line style="stroke:#181818;stroke-width:0.5;" x1="39.5" x2="173.5" y1="95.8906" y2="95.8906"/></g><!--class User--><g id="elem_User"><rect codeLine="7" fill="#F1F1F1" height="129.4844" id="User" rx="2.5" ry="2.5" style="stroke:#181818;stroke-width:0.5;" width="199" x="7" y="172.5"/><ellipse cx="86.75" cy="188.5" fill="#ADD1B2" rx="11" ry="11" style="stroke:#181818;stroke-width:1.0;"/><path d="M85.5469,189.375 L87,189.375 L87,189.4844 C87,189.8906 87.0313,190.0469 87.1094,190.2031 C87.2656,190.4531 87.5469,190.6094 87.8438,190.6094 C88.0938,190.6094 88.3594,190.4688 88.5156,190.25 C88.6406,190.0938 88.6719,189.9375 88.6719,189.4844 L88.6719,187.5625 C88.6719,187.4063 88.6719,187.3594 88.6563,187.2031 C88.5938,186.7344 88.2813,186.4219 87.8281,186.4219 C87.5781,186.4219 87.3125,186.5625 87.1406,186.7813 C87.0313,186.9531 87,187.1094 87,187.5625 L87,187.6875 L85.5469,187.6875 L85.5469,185.2813 L89.5313,185.2813 L89.5313,186.1406 C89.5313,186.5469 89.5625,186.7188 89.6406,186.875 C89.8125,187.125 90.0938,187.2813 90.375,187.2813 C90.6406,187.2813 90.9063,187.1406 91.0781,186.9219 C91.1875,186.75 91.2188,186.6094 91.2188,186.1406 L91.2188,183.5938 L83.5938,183.5938 C83.1563,183.5938 83.0313,183.6094 82.875,183.7031 C82.625,183.8594 82.4688,184.1563 82.4688,184.4375 C82.4688,184.7188 82.6094,184.9688 82.8281,185.1406 C82.9844,185.25 83.1719,185.2813 83.5938,185.2813 L83.8438,185.2813 L83.8438,191.7969 L83.5938,191.7969 C83.1875,191.7969 83.0313,191.8125 82.875,191.9219 C82.625,192.0938 82.4688,192.3594 82.4688,192.6563 C82.4688,192.9219 82.6094,193.1719 82.8281,193.3281 C82.9688,193.4531 83.2031,193.5 83.5938,193.5 L91.5938,193.5 L91.5938,190.9219 C91.5938,190.4844 91.5625,190.3438 91.4844,190.1875 C91.3125,189.9375 91.0313,189.7813 90.75,189.7813 C90.4844,189.7813 90.2188,189.8906 90.0469,190.1406 C89.9375,190.2969 89.9063,190.4375 89.9063,190.9219 L89.9063,191.7969 L85.5469,191.7969 L85.5469,189.375 Z " fill="#000000"/><text fill="#000000" font-family="sans-serif" font-size="14" lengthAdjust="spacing" textLength="31" x="107.25" y="193.3467">User</text><line style="stroke:#181818;stroke-width:0.5;" x1="8" x2="205" y1="204.5" y2="204.5"/><text fill="#000000" font-family="sans-serif" font-size="14" lengthAdjust="spacing" textLength="13" x="13" y="221.4951">id</text><text fill="#000000" font-family="sans-serif" font-size="14" lengthAdjust="spacing" textLength="70" x="13" y="237.792">username</text><text fill="#000000" font-family="sans-serif" font-size="14" lengthAdjust="spacing" textLength="71" x="13" y="254.0889">firstName</text><text fill="#000000" font-family="sans-serif" font-size="14" lengthAdjust="spacing" textLength="67" x="13" y="270.3857">lastName</text><text fill="#000000" font-family="sans-serif" font-size="14" lengthAdjust="spacing" textLength="187" x="13" y="286.6826">department: Department</text><line style="stroke:#181818;stroke-width:0.5;" x1="8" x2="205" y1="293.9844" y2="293.9844"/></g><!--class Software--><g id="elem_Software"><rect codeLine="15" fill="#F1F1F1" height="80.5938" id="Software" rx="2.5" ry="2.5" style="stroke:#181818;stroke-width:0.5;" width="97" x="590" y="15"/><ellipse cx="605" cy="31" fill="#ADD1B2" rx="11" ry="11" style="stroke:#181818;stroke-width:1.0;"/><path d="M603.7969,31.875 L605.25,31.875 L605.25,31.9844 C605.25,32.3906 605.2813,32.5469 605.3594,32.7031 C605.5156,32.9531 605.7969,33.1094 606.0938,33.1094 C606.3438,33.1094 606.6094,32.9688 606.7656,32.75 C606.8906,32.5938 606.9219,32.4375 606.9219,31.9844 L606.9219,30.0625 C606.9219,29.9063 606.9219,29.8594 606.9063,29.7031 C606.8438,29.2344 606.5313,28.9219 606.0781,28.9219 C605.8281,28.9219 605.5625,29.0625 605.3906,29.2813 C605.2813,29.4531 605.25,29.6094 605.25,30.0625 L605.25,30.1875 L603.7969,30.1875 L603.7969,27.7813 L607.7813,27.7813 L607.7813,28.6406 C607.7813,29.0469 607.8125,29.2188 607.8906,29.375 C608.0625,29.625 608.3438,29.7813 608.625,29.7813 C608.8906,29.7813 609.1563,29.6406 609.3281,29.4219 C609.4375,29.25 609.4688,29.1094 609.4688,28.6406 L609.4688,26.0938 L601.8438,26.0938 C601.4063,26.0938 601.2813,26.1094 601.125,26.2031 C600.875,26.3594 600.7188,26.6563 600.7188,26.9375 C600.7188,27.2188 600.8594,27.4688 601.0781,27.6406 C601.2344,27.75 601.4219,27.7813 601.8438,27.7813 L602.0938,27.7813 L602.0938,34.2969 L601.8438,34.2969 C601.4375,34.2969 601.2813,34.3125 601.125,34.4219 C600.875,34.5938 600.7188,34.8594 600.7188,35.1563 C600.7188,35.4219 600.8594,35.6719 601.0781,35.8281 C601.2188,35.9531 601.4531,36 601.8438,36 L609.8438,36 L609.8438,33.4219 C609.8438,32.9844 609.8125,32.8438 609.7344,32.6875 C609.5625,32.4375 609.2813,32.2813 609,32.2813 C608.7344,32.2813 608.4688,32.3906 608.2969,32.6406 C608.1875,32.7969 608.1563,32.9375 608.1563,33.4219 L608.1563,34.2969 L603.7969,34.2969 L603.7969,31.875 Z " fill="#000000"/><text fill="#000000" font-family="sans-serif" font-size="14" lengthAdjust="spacing" textLength="65" x="619" y="35.8467">Software</text><line style="stroke:#181818;stroke-width:0.5;" x1="591" x2="686" y1="47" y2="47"/><text fill="#000000" font-family="sans-serif" font-size="14" lengthAdjust="spacing" textLength="13" x="596" y="63.9951">id</text><text fill="#000000" font-family="sans-serif" font-size="14" lengthAdjust="spacing" textLength="40" x="596" y="80.292">name</text><line style="stroke:#181818;stroke-width:0.5;" x1="591" x2="686" y1="87.5938" y2="87.5938"/></g><!--class SoftwareRequest--><g id="elem_SoftwareRequest"><rect codeLine="20" fill="#F1F1F1" height="96.8906" id="SoftwareRequest" rx="2.5" ry="2.5" style="stroke:#181818;stroke-width:0.5;" width="156" x="560.5" y="188.5"/><ellipse cx="575.5" cy="204.5" fill="#ADD1B2" rx="11" ry="11" style="stroke:#181818;stroke-width:1.0;"/><path d="M574.2969,205.375 L575.75,205.375 L575.75,205.4844 C575.75,205.8906 575.7813,206.0469 575.8594,206.2031 C576.0156,206.4531 576.2969,206.6094 576.5938,206.6094 C576.8438,206.6094 577.1094,206.4688 577.2656,206.25 C577.3906,206.0938 577.4219,205.9375 577.4219,205.4844 L577.4219,203.5625 C577.4219,203.4063 577.4219,203.3594 577.4063,203.2031 C577.3438,202.7344 577.0313,202.4219 576.5781,202.4219 C576.3281,202.4219 576.0625,202.5625 575.8906,202.7813 C575.7813,202.9531 575.75,203.1094 575.75,203.5625 L575.75,203.6875 L574.2969,203.6875 L574.2969,201.2813 L578.2813,201.2813 L578.2813,202.1406 C578.2813,202.5469 578.3125,202.7188 578.3906,202.875 C578.5625,203.125 578.8438,203.2813 579.125,203.2813 C579.3906,203.2813 579.6563,203.1406 579.8281,202.9219 C579.9375,202.75 579.9688,202.6094 579.9688,202.1406 L579.9688,199.5938 L572.3438,199.5938 C571.9063,199.5938 571.7813,199.6094 571.625,199.7031 C571.375,199.8594 571.2188,200.1563 571.2188,200.4375 C571.2188,200.7188 571.3594,200.9688 571.5781,201.1406 C571.7344,201.25 571.9219,201.2813 572.3438,201.2813 L572.5938,201.2813 L572.5938,207.7969 L572.3438,207.7969 C571.9375,207.7969 571.7813,207.8125 571.625,207.9219 C571.375,208.0938 571.2188,208.3594 571.2188,208.6563 C571.2188,208.9219 571.3594,209.1719 571.5781,209.3281 C571.7188,209.4531 571.9531,209.5 572.3438,209.5 L580.3438,209.5 L580.3438,206.9219 C580.3438,206.4844 580.3125,206.3438 580.2344,206.1875 C580.0625,205.9375 579.7813,205.7813 579.5,205.7813 C579.2344,205.7813 578.9688,205.8906 578.7969,206.1406 C578.6875,206.2969 578.6563,206.4375 578.6563,206.9219 L578.6563,207.7969 L574.2969,207.7969 L574.2969,205.375 Z " fill="#000000"/><text fill="#000000" font-family="sans-serif" font-size="14" lengthAdjust="spacing" textLength="124" x="589.5" y="209.3467">SoftwareRequest</text><line style="stroke:#181818;stroke-width:0.5;" x1="561.5" x2="715.5" y1="220.5" y2="220.5"/><text fill="#000000" font-family="sans-serif" font-size="14" lengthAdjust="spacing" textLength="13" x="566.5" y="237.4951">id</text><text fill="#000000" font-family="sans-serif" font-size="14" lengthAdjust="spacing" textLength="137" x="566.5" y="253.792">software: Software</text><text fill="#000000" font-family="sans-serif" font-size="14" lengthAdjust="spacing" textLength="138" x="566.5" y="270.0889">permissionGranted</text><line style="stroke:#181818;stroke-width:0.5;" x1="561.5" x2="715.5" y1="277.3906" y2="277.3906"/></g><!--class WorkspaceRequest--><g id="elem_WorkspaceRequest"><rect codeLine="26" fill="#F1F1F1" height="145.7813" id="WorkspaceRequest" rx="2.5" ry="2.5" style="stroke:#181818;stroke-width:0.5;" width="284" x="241.5" y="164"/><ellipse cx="309.75" cy="180" fill="#ADD1B2" rx="11" ry="11" style="stroke:#181818;stroke-width:1.0;"/><path d="M308.5469,180.875 L310,180.875 L310,180.9844 C310,181.3906 310.0313,181.5469 310.1094,181.7031 C310.2656,181.9531 310.5469,182.1094 310.8438,182.1094 C311.0938,182.1094 311.3594,181.9688 311.5156,181.75 C311.6406,181.5938 311.6719,181.4375 311.6719,180.9844 L311.6719,179.0625 C311.6719,178.9063 311.6719,178.8594 311.6563,178.7031 C311.5938,178.2344 311.2813,177.9219 310.8281,177.9219 C310.5781,177.9219 310.3125,178.0625 310.1406,178.2813 C310.0313,178.4531 310,178.6094 310,179.0625 L310,179.1875 L308.5469,179.1875 L308.5469,176.7813 L312.5313,176.7813 L312.5313,177.6406 C312.5313,178.0469 312.5625,178.2188 312.6406,178.375 C312.8125,178.625 313.0938,178.7813 313.375,178.7813 C313.6406,178.7813 313.9063,178.6406 314.0781,178.4219 C314.1875,178.25 314.2188,178.1094 314.2188,177.6406 L314.2188,175.0938 L306.5938,175.0938 C306.1563,175.0938 306.0313,175.1094 305.875,175.2031 C305.625,175.3594 305.4688,175.6563 305.4688,175.9375 C305.4688,176.2188 305.6094,176.4688 305.8281,176.6406 C305.9844,176.75 306.1719,176.7813 306.5938,176.7813 L306.8438,176.7813 L306.8438,183.2969 L306.5938,183.2969 C306.1875,183.2969 306.0313,183.3125 305.875,183.4219 C305.625,183.5938 305.4688,183.8594 305.4688,184.1563 C305.4688,184.4219 305.6094,184.6719 305.8281,184.8281 C305.9688,184.9531 306.2031,185 306.5938,185 L314.5938,185 L314.5938,182.4219 C314.5938,181.9844 314.5625,181.8438 314.4844,181.6875 C314.3125,181.4375 314.0313,181.2813 313.75,181.2813 C313.4844,181.2813 313.2188,181.3906 313.0469,181.6406 C312.9375,181.7969 312.9063,181.9375 312.9063,182.4219 L312.9063,183.2969 L308.5469,183.2969 L308.5469,180.875 Z " fill="#000000"/><text fill="#000000" font-family="sans-serif" font-size="14" lengthAdjust="spacing" textLength="139" x="330.25" y="184.8467">WorkspaceRequest</text><line style="stroke:#181818;stroke-width:0.5;" x1="242.5" x2="524.5" y1="196" y2="196"/><text fill="#000000" font-family="sans-serif" font-size="14" lengthAdjust="spacing" textLength="33" x="247.5" y="212.9951">date</text><text fill="#000000" font-family="sans-serif" font-size="14" lengthAdjust="spacing" textLength="116" x="247.5" y="229.292">hrManager: User</text><text fill="#000000" font-family="sans-serif" font-size="14" lengthAdjust="spacing" textLength="112" x="247.5" y="245.5889">employee: User</text><text fill="#000000" font-family="sans-serif" font-size="14" lengthAdjust="spacing" textLength="195" x="247.5" y="261.8857">workType: Office | Remote</text><text fill="#000000" font-family="sans-serif" font-size="14" lengthAdjust="spacing" textLength="272" x="247.5" y="278.1826">softwareRequests: SoftwareRequest[]</text><text fill="#000000" font-family="sans-serif" font-size="14" lengthAdjust="spacing" textLength="82" x="247.5" y="294.4795">processLog</text><line style="stroke:#181818;stroke-width:0.5;" x1="242.5" x2="524.5" y1="301.7813" y2="301.7813"/></g><!--link User to WorkspaceRequest--><g id="link_User_WorkspaceRequest"><path codeLine="35" d="M206.047,237 C215.161,237 224.275,237 233.389,237 " fill="none" id="User-to-WorkspaceRequest" style="stroke:#181818;stroke-width:1.0;"/><line style="stroke:#181818;stroke-width:1.0;" x1="233.399" x2="241.399" y1="237" y2="229"/><line style="stroke:#181818;stroke-width:1.0;" x1="233.399" x2="241.399" y1="237" y2="245"/><line style="stroke:#181818;stroke-width:1.0;" x1="233.399" x2="241.399" y1="237" y2="237"/></g><!--link Department to User--><g id="link_Department_User"><path codeLine="36" d="M95.0903,104.131 C93.8311,122.48 93.4592,143.866 93.9745,164.008 " fill="none" id="Department-to-User" style="stroke:#181818;stroke-width:1.0;"/><line style="stroke:#181818;stroke-width:1.0;" x1="93.9823" x2="102.2339" y1="164.2561" y2="172.252"/><line style="stroke:#181818;stroke-width:1.0;" x1="93.9823" x2="86.2421" y1="164.2561" y2="172.252"/><line style="stroke:#181818;stroke-width:1.0;" x1="93.9823" x2="94.238" y1="164.2561" y2="172.252"/></g><!--reverse link Department to User--><g id="link_Department_User"><path codeLine="37" d="M119.093,112.132 C120.154,131.173 120.284,152.621 119.483,172.252 " fill="none" id="Department-backto-User" style="stroke:#181818;stroke-width:1.0;"/><line style="stroke:#181818;stroke-width:1.0;" x1="119.0924" x2="110.5974" y1="112.1146" y2="104.131"/><line style="stroke:#181818;stroke-width:1.0;" x1="119.0924" x2="126.5646" y1="112.1146" y2="104.131"/><line style="stroke:#181818;stroke-width:1.0;" x1="119.0924" x2="118.581" y1="112.1146" y2="104.131"/></g><!--link Software to SoftwareRequest--><g id="link_Software_SoftwareRequest"><path codeLine="38" d="M638.5,96.337 C638.5,120.954 638.5,152.918 638.5,180.053 " fill="none" id="Software-to-SoftwareRequest" style="stroke:#181818;stroke-width:1.0;"/><line style="stroke:#181818;stroke-width:1.0;" x1="638.5" x2="646.5" y1="180.306" y2="188.306"/><line style="stroke:#181818;stroke-width:1.0;" x1="638.5" x2="630.5" y1="180.306" y2="188.306"/><line style="stroke:#181818;stroke-width:1.0;" x1="638.5" x2="638.5" y1="180.306" y2="188.306"/></g><!--link WorkspaceRequest to SoftwareRequest--><g id="link_WorkspaceRequest_SoftwareRequest"><path codeLine="39" d="M525.941,237 C534.694,237 543.446,237 552.199,237 " fill="none" id="WorkspaceRequest-to-SoftwareRequest" style="stroke:#181818;stroke-width:1.0;"/><line style="stroke:#181818;stroke-width:1.0;" x1="552.237" x2="560.237" y1="237" y2="229"/><line style="stroke:#181818;stroke-width:1.0;" x1="552.237" x2="560.237" y1="237" y2="245"/><line style="stroke:#181818;stroke-width:1.0;" x1="552.237" x2="560.237" y1="237" y2="237"/></g><!--SRC=[RL71Ri8m33qtNv4Vw0_qF6aNO1BRjCF4mMfS5et4mGv25V3lf66jGhjSalViPpyxwAEDlNx101mT-gWlIgTZJRuyECoFbeYDzH296_qfoEgc53x40toMdH8pIJlB4ZSZEa01pDIsAImKfT-fYsTW_CVLCccBnnFAR0Bv2pPJMgO3ihCYblmhWuzeYdfVnByIe2qALWOYgkg7r-1XZ-CEAdJXG3tYYCz9-j67XD-wphQehtgBZWQjFBkKPkxxUwUgmDIYo8hsWv-ysFgoCAIAxwfJFFSkk5jTFxXfVKFMh9rQZBdCkGC0]--></g></svg>